<svg width="52" height="47" viewBox="0 0 52 47" fill="none" xmlns="http://www.w3.org/2000/svg">
<path d="M18.3516 16.2856L6.93607 27.5487H1" stroke="white"/>
<path d="M24.516 16.822L16.0685 24.3307H10.5891" stroke="white"/>
<path d="M30.452 16.2856L24.516 21.649H19.0365" stroke="white"/>
<path d="M40.4977 18.431L44.8356 25.1352L43.4657 42.0298L44.8356 45.7842H40.4977L38.2146 27.2805" stroke="white"/>
<path d="M38.2146 30.4986L34.3333 33.1803" stroke="white"/>
<path d="M48.4886 20.3082V25.6716L37.9863 9.04508L41.6393 2.07269L47.5754 5.55889L51 11.1904L48.4886 15.4811L43.4658 11.1904L42.3242 8.50875" stroke="white"/>
<path d="M1 27.2805L28.3973 1L37.9863 14.9448L26.7991 25.1352L31.3653 35.862L26.7991 39.8845L31.3653 46.0524H26.7991L22.0046 38.0073L24.7443 30.7667" stroke="white"/>
</svg>
